<svg width="97" height="77" viewBox="0 0 97 77" fill="none" xmlns="http://www.w3.org/2000/svg">
<path d="M51.0876 61.114C50.2547 60.3916 49.2607 60.1354 48.0315 60.086V60.0829C48.0222 60.0829 48.0129 60.0829 48.0067 60.0829C47.9974 60.0829 47.9881 60.0829 47.9789 60.0829V60.086C46.7496 60.1354 45.7557 60.3916 44.9227 61.114C43.7895 62.0987 43.6223 63.4107 44.579 64.556C45.2231 65.3278 45.9569 66.0378 46.7093 66.7108C47.1088 67.0658 47.5423 67.2295 48.0067 67.2078C48.4712 67.2295 48.9047 67.0658 49.3041 66.7108C50.0565 66.0378 50.7903 65.3278 51.4344 64.556C52.3881 63.4107 52.2209 62.0987 51.0876 61.114ZM49.3629 62.7903C48.9542 62.96 48.5083 63.0496 48.0036 63.1916C47.4989 63.0496 47.053 62.9631 46.6443 62.7903C46.0034 62.5217 45.9414 61.9876 46.4678 61.5338C46.6072 61.4134 46.7775 61.2807 46.9509 61.2498C47.3007 61.1819 47.6506 61.1325 48.0005 61.1232C48.3504 61.1325 48.7003 61.1819 49.0502 61.2498C49.2236 61.2837 49.3939 61.4134 49.5332 61.5338C50.0658 61.9876 50.0039 62.5217 49.3629 62.7903Z" fill="#2B3142"/>
<path d="M96.0313 35.7444C95.4461 34.4571 94.1673 33.3766 92.7399 33.4167C91.4642 33.4538 90.3928 34.3182 89.2348 34.8491C85.3272 36.8063 79.4781 33.9848 79.7816 29.3418C79.9643 27.0265 80.9458 24.8625 81.7385 22.6799C83.9029 16.5397 84.937 9.83771 84.005 3.36412C82.9182 -1.83759 78.0321 -0.189088 75.4188 2.82698C72.2915 5.77513 68.387 8.14291 65.0088 10.6527C64.5537 10.9274 64.0923 11.196 63.6309 11.4584C59.3703 9.88401 54.0415 8.94246 48.3659 8.9332C48.3132 8.9332 48.2606 8.9332 48.2048 8.9332C48.1522 8.9332 48.0996 8.9332 48.0438 8.9332C42.3713 8.94555 37.0393 9.88401 32.7787 11.4584C32.3174 11.196 31.856 10.9274 31.4009 10.6527C28.0227 8.14291 24.1182 5.77513 20.9909 2.82698C18.3775 -0.189088 13.4915 -1.83759 12.4047 3.36412C11.4726 9.83771 12.5099 16.5428 14.6712 22.6799C15.4639 24.8625 16.4454 27.0265 16.6281 29.3418C16.9315 33.9848 11.0794 36.8094 7.17489 34.8491C6.01685 34.3182 4.9455 33.4538 3.6698 33.4167C2.24547 33.3735 0.963573 34.454 0.378359 35.7444C-0.113963 38.8994 -0.00558181 42.1254 0.638462 45.2495C1.87701 51.2723 5.00434 56.7951 8.99555 61.4288C11.0299 63.7904 13.3088 65.9452 15.7735 67.8622C16.9842 68.8038 18.2413 69.6898 19.5387 70.5109C20.2013 70.9308 20.7401 71.3414 21.4801 71.6254C22.3347 71.9526 23.2079 72.2428 24.0903 72.4898C27.5799 73.4714 31.2522 73.8172 34.8626 73.4992C35.5098 73.4437 36.6059 73.064 37.1942 73.3541C37.7422 73.6258 38.2345 74.3605 38.7361 74.7402C39.7549 75.5089 41.2535 76.2869 42.393 75.2928C42.5942 75.1169 42.8729 75.0675 43.1206 75.1693C43.164 75.1879 43.2073 75.2064 43.2507 75.2249C43.6811 75.407 44.1022 75.6108 44.5295 75.7991C44.5449 75.8053 44.5573 75.8114 44.5728 75.8176C44.9258 75.972 45.2819 76.114 45.6534 76.2251C45.7216 76.2467 45.7928 76.2652 45.864 76.2807C45.8671 76.2807 45.8671 76.2838 45.8702 76.2838C46.4957 76.4381 47.1428 76.4783 47.7837 76.4813C47.9231 76.4813 48.0624 76.4844 48.2048 76.4875C48.7374 76.4968 49.2793 76.506 49.7995 76.435C50.0503 76.4011 50.298 76.3486 50.5395 76.2838C50.5426 76.2838 50.5426 76.2838 50.5457 76.2807C50.9854 76.1603 51.4127 75.9967 51.8338 75.8176C51.8462 75.8114 51.8616 75.8053 51.8771 75.7991C52.2611 75.6324 52.6419 75.4533 53.0259 75.2836C53.0692 75.265 53.1126 75.2434 53.1559 75.2249C53.1993 75.2064 53.2426 75.1879 53.286 75.1693C53.5337 75.0675 53.8124 75.1169 54.0136 75.2928C55.1531 76.2869 56.6548 75.5089 57.6704 74.7402C58.1721 74.3636 58.6644 73.6258 59.2124 73.3541C59.7976 73.064 60.8969 73.4406 61.544 73.4992C65.1575 73.8172 68.8266 73.4714 72.3163 72.4898C73.1987 72.2428 74.0719 71.9526 74.9265 71.6254C75.6665 71.3414 76.2053 70.9308 76.8679 70.5109C78.1653 69.6898 79.4224 68.8038 80.6331 67.8622C83.0947 65.9452 85.3736 63.7935 87.411 61.4288C91.4053 56.7951 94.5296 51.2723 95.7681 45.2495C96.4122 42.1284 96.5236 38.8994 96.0313 35.7444ZM55.7197 73.8203C55.6516 73.8326 55.5835 73.8419 55.5185 73.8481C55.4844 73.8511 55.4503 73.8542 55.4163 73.8542C55.3884 73.8573 55.3606 73.8573 55.3296 73.8573C55.246 73.8604 55.1655 73.8542 55.0819 73.8481C55.0385 73.8419 54.9921 73.8388 54.9487 73.8295C54.9333 73.8265 54.9178 73.8234 54.9023 73.8234C54.8744 73.8172 54.8434 73.8141 54.8156 73.8049C54.7846 73.7987 54.7537 73.7925 54.7227 73.7832C54.6948 73.7771 54.6701 73.7709 54.6422 73.7616C54.6143 73.7524 54.5865 73.7431 54.5555 73.7369C54.5214 73.7277 54.4874 73.7153 54.4564 73.703C54.4347 73.6937 54.4131 73.6844 54.3883 73.6783C54.3604 73.669 54.3326 73.6567 54.3047 73.6443C54.2768 73.632 54.249 73.6196 54.2211 73.6073C54.1901 73.5949 54.1592 73.5795 54.1313 73.5641C54.1065 73.5517 54.0848 73.5424 54.0632 73.5301C54.0446 73.5208 54.026 73.5116 54.0074 73.5023C53.9858 73.493 53.9672 73.4807 53.9455 73.4684C53.8681 73.4251 53.7907 73.3788 53.7133 73.3294C53.6792 73.3078 53.6452 73.2862 53.6111 73.2615C53.5956 73.2523 53.5832 73.243 53.5678 73.2337C53.5337 73.2121 53.4996 73.1874 53.4656 73.1627C53.4222 73.135 53.382 73.1041 53.3386 73.0701C53.3108 73.0485 53.2829 73.03 53.255 73.0084C53.1497 72.9312 53.0476 72.8478 52.9485 72.7676C52.9051 72.7305 52.8587 72.6966 52.8153 72.6595C52.772 72.6225 52.7255 72.5886 52.6822 72.5515C52.6543 72.5299 52.6265 72.5052 52.5986 72.4836C52.549 72.4434 52.5026 72.4033 52.4531 72.3663C52.0629 72.0483 51.6294 71.789 51.2424 71.4741C51.2393 71.471 51.2331 71.4679 51.23 71.4649C51.23 71.4649 51.2269 71.4648 51.2269 71.4618C51.1681 71.4124 51.1061 71.3661 51.0473 71.3228C50.9575 71.258 50.8646 71.1963 50.7717 71.1407C50.6138 71.0481 50.4497 70.9678 50.2794 70.8999C50.2454 70.8876 50.2113 70.8752 50.1772 70.8629C50.0038 70.8042 49.8211 70.7579 49.6323 70.7239C49.1616 70.6468 48.6848 70.6468 48.2079 70.6715C48.0562 70.6807 47.9045 70.69 47.7528 70.7023C47.1737 70.7486 46.5823 70.8104 46.0343 71.0141C45.7401 71.1222 45.4553 71.2827 45.1828 71.4618C45.1828 71.4618 45.1797 71.4618 45.1797 71.4649C45.1797 71.4679 45.1766 71.4649 45.1766 71.4679C44.997 71.5853 44.8205 71.7118 44.6502 71.8322C44.4118 72.002 44.1827 72.1841 43.9566 72.3694C43.9071 72.4095 43.8606 72.4465 43.8111 72.4867C43.7894 72.5021 43.7708 72.5206 43.7523 72.5361C43.743 72.5422 43.7368 72.5484 43.7275 72.5546C43.6253 72.6379 43.5262 72.7182 43.4241 72.7985C42.7429 73.3387 41.9657 73.8604 41.0832 73.8604C41.0553 73.8604 41.0275 73.8604 40.9965 73.8573C40.9625 73.8542 40.9284 73.8542 40.8943 73.8511C40.8262 73.845 40.7612 73.8357 40.6931 73.8234C35.9556 71.7489 35.5995 65.0746 36.9124 60.6848C38.1757 56.6778 40.628 53.0474 43.6346 50.127C44.8112 48.9478 46.6474 48.5001 48.2048 48.2501C49.7623 48.5001 51.5985 48.9478 52.7751 50.127C55.7817 53.0474 58.234 56.6809 59.4973 60.6848C60.8164 65.0715 60.4572 71.7458 55.7197 73.8203ZM35.3178 51.8712C35.2435 51.8805 35.166 51.8836 35.0855 51.8805C34.4508 51.8681 33.6457 51.5409 33.1565 51.3711C32.2648 51.0624 31.4133 50.6364 30.6361 50.1054C30.2521 49.843 29.8775 49.5467 29.6143 49.1608C29.3511 48.7749 29.2148 48.2871 29.3325 47.8364C29.4656 47.3332 29.9053 46.9566 30.3915 46.7683C30.8776 46.5831 31.4102 46.5615 31.9334 46.5707C33.7603 46.5985 35.581 46.9597 37.2809 47.6296C38.1417 47.9692 39.0675 48.5032 39.2533 49.4047C39.439 50.3184 38.7362 51.2229 37.8785 51.5903C37.3087 51.8342 35.9463 52.1522 35.3178 51.8712ZM58.5405 51.5903C57.6828 51.2229 56.9769 50.3184 57.1657 49.4047C57.3515 48.5002 58.2773 47.9661 59.1381 47.6296C60.838 46.9597 62.6587 46.5985 64.4855 46.5707C65.0057 46.5615 65.5383 46.5831 66.0275 46.7683C66.5137 46.9535 66.9502 47.3332 67.0865 47.8364C67.2072 48.2871 67.0679 48.7749 66.8047 49.1608C66.5415 49.5467 66.17 49.843 65.7829 50.1054C65.0057 50.6364 64.1542 51.0655 63.2625 51.3711C62.7733 51.5409 61.9682 51.8681 61.3334 51.8805C61.2529 51.8836 61.1755 51.8774 61.1012 51.8712C60.4727 52.1522 59.1072 51.8342 58.5405 51.5903ZM91.2753 39.4458C91.1422 45.6508 87.6185 51.4421 82.7572 55.2176C88.3306 54.4088 89.9841 51.9175 90.0306 51.933C85.2281 59.5951 77.4996 65.7939 68.8266 69.1619C66.3341 69.8812 63.4947 71.6655 60.8535 70.8196C60.1382 70.3041 60.9123 69.5169 60.9557 68.8223C61.095 68.4087 61.222 67.995 61.3241 67.569C62.8723 67.1707 64.4453 66.8775 65.978 66.4206C74.3196 63.92 84.5872 54.0075 80.9954 44.8018C80.9675 44.7586 80.9365 44.7154 80.9056 44.6753C80.8808 44.6413 80.856 44.6074 80.8313 44.5765C80.8065 44.5425 80.7786 44.5117 80.7507 44.4808C80.6981 44.416 80.6424 44.3573 80.5866 44.2956C80.1965 43.8757 79.7444 43.53 79.28 43.2027C79.1468 43.1101 79.0137 43.0144 78.8805 42.9218C78.8124 42.8755 78.7474 42.8292 78.6824 42.7829C78.5493 42.6903 78.4192 42.5946 78.2892 42.4958C78.1591 42.397 78.0322 42.2982 77.9083 42.1933C77.7225 42.0389 77.5398 41.8722 77.3726 41.6932C76.9484 41.2394 76.484 40.8689 75.9885 40.554C75.2206 40.0632 74.3753 39.7113 73.4681 39.4056C70.7092 38.4734 67.8327 37.8374 64.9221 37.7355C62.6432 37.6584 60.3457 37.9146 58.1659 38.5907C57.1564 38.9055 56.2554 39.2883 55.3544 39.8286C55.3544 39.8286 55.3513 39.8286 55.3513 39.8317C55.2677 39.8811 55.1841 39.9335 55.1005 39.9798C55.0664 39.9984 55.0323 40.02 54.9983 40.0385C54.9828 40.0478 54.9673 40.057 54.9487 40.0663C54.9116 40.0879 54.8775 40.1064 54.8404 40.1249C54.8218 40.1342 54.8001 40.1465 54.7815 40.1558C54.7784 40.1589 54.7722 40.162 54.7691 40.162C54.7289 40.1836 54.6886 40.2052 54.6453 40.2268C54.6329 40.233 54.6236 40.2361 54.6112 40.2422C54.5679 40.2638 54.5276 40.2855 54.4843 40.304C54.4812 40.3071 54.4781 40.3071 54.475 40.3071C54.4347 40.3256 54.3945 40.3441 54.3542 40.3595C54.3202 40.375 54.2861 40.3873 54.2521 40.4028C54.1839 40.4306 54.1158 40.4553 54.0477 40.4799C54.0291 40.4861 54.0105 40.4923 53.992 40.4985C53.9548 40.5108 53.9176 40.5232 53.8805 40.5355C53.8526 40.5448 53.8248 40.5509 53.7969 40.5602C53.7845 40.5633 53.7721 40.5664 53.7597 40.5695C53.7473 40.5726 53.7319 40.5757 53.7195 40.5787C53.6854 40.5849 53.6545 40.5942 53.6235 40.6003C53.5492 40.6158 53.4749 40.6281 53.4006 40.6374C53.3541 40.6436 53.3077 40.6466 53.2612 40.6497C53.2364 40.6528 53.2086 40.6528 53.1838 40.6528C53.1436 40.6559 53.1064 40.6559 53.0661 40.6528C53.0166 40.6528 52.964 40.6497 52.9144 40.6466C52.902 40.6466 52.8896 40.6436 52.8804 40.6436C52.8742 40.6436 52.8711 40.6436 52.8649 40.6405C52.8308 40.6374 52.7998 40.6343 52.7658 40.6281H52.7627C52.7256 40.6219 52.6853 40.6158 52.645 40.6065C52.1434 40.4923 51.713 40.27 51.3446 39.9737C51.261 39.9058 51.1804 39.8317 51.0999 39.7545C51.0504 39.7051 51.004 39.6588 50.9575 39.6063C50.9358 39.5816 50.9142 39.5569 50.8894 39.5322C50.8832 39.526 50.877 39.5199 50.8708 39.5106C50.8522 39.4921 50.8368 39.4705 50.8213 39.452C50.7934 39.4149 50.7624 39.381 50.7346 39.3439C50.7036 39.3038 50.6758 39.2636 50.6479 39.2235C50.6386 39.2112 50.6324 39.2019 50.6231 39.1896C50.6045 39.1618 50.586 39.134 50.5674 39.1062C50.5612 39.0969 50.5519 39.0846 50.5457 39.0722C50.5395 39.063 50.5364 39.0568 50.5302 39.0475C50.5178 39.029 50.5055 39.0105 50.4962 38.992C50.4931 38.9858 50.4869 38.9796 50.4838 38.9735C50.4714 38.9518 50.4559 38.9272 50.4435 38.9055C50.4187 38.8654 50.3971 38.8253 50.3754 38.7851C50.3073 38.6617 50.2454 38.5351 50.1865 38.4054C50.1679 38.3622 50.1494 38.319 50.1308 38.2727C50.1308 38.2696 50.1277 38.2696 50.1277 38.2665C50.0936 38.1893 50.0658 38.1122 50.0348 38.0319C50.0255 38.0041 50.0162 37.9763 50.0038 37.9485C49.8397 37.4917 49.7159 37.0224 49.5951 36.5501C49.5951 36.547 49.592 36.5439 49.592 36.5408C49.4279 35.9111 49.6106 35.2659 48.9913 34.8121C48.8922 34.7411 48.7808 34.6824 48.6662 34.6423C48.6476 34.6361 48.6259 34.63 48.6074 34.6238C48.5888 34.6176 48.5702 34.6114 48.5516 34.6053C48.5516 34.6053 48.5516 34.6053 48.5485 34.6053C48.5269 34.5991 48.5052 34.596 48.4804 34.5898C48.4804 34.5898 48.4804 34.5898 48.4773 34.5898C48.4526 34.5836 48.4247 34.5806 48.3999 34.5775C48.3504 34.5713 48.3008 34.5651 48.2544 34.5651C48.2172 34.5651 48.1832 34.5651 48.1491 34.5651C48.0996 34.5682 48.05 34.5713 48.0005 34.5775C47.9757 34.5806 47.9479 34.5867 47.9231 34.5898C47.9014 34.596 47.8797 34.5991 47.855 34.6053C47.855 34.6053 47.855 34.6053 47.8519 34.6053C47.8333 34.6114 47.8116 34.6176 47.793 34.6238C47.7775 34.6269 47.7621 34.633 47.7466 34.6361C47.728 34.6423 47.7125 34.6485 47.6939 34.6547C47.6072 34.6886 47.5267 34.7287 47.4493 34.7812C46.7929 35.2227 46.9601 35.8895 46.8115 36.5378C46.8115 36.5408 46.8084 36.5439 46.8084 36.547C46.8084 36.5532 46.8053 36.5594 46.8053 36.5655C46.6907 37.0317 46.5669 37.4947 46.4028 37.9455C46.3935 37.9732 46.3811 38.001 46.3718 38.0288C46.3408 38.1091 46.3099 38.1893 46.2758 38.2696C46.2572 38.3128 46.2387 38.356 46.2201 38.4023C46.1613 38.532 46.0993 38.6586 46.0312 38.7821C46.0095 38.8222 45.9848 38.8623 45.9631 38.9025C45.9445 38.9333 45.9259 38.9611 45.9104 38.992C45.8981 39.0105 45.8888 39.029 45.8764 39.0475C45.864 39.0661 45.8516 39.0846 45.8392 39.1031C45.8206 39.1309 45.8021 39.1587 45.7835 39.1865C45.7773 39.1988 45.768 39.2112 45.7587 39.2204C45.7525 39.2328 45.7432 39.242 45.734 39.2544C45.7123 39.2822 45.6906 39.313 45.6689 39.3408C45.6472 39.3686 45.6256 39.3995 45.6008 39.4273C45.5977 39.4303 45.5946 39.4334 45.5946 39.4365C45.5729 39.4643 45.5513 39.489 45.5265 39.5168C45.5048 39.5446 45.4831 39.5693 45.4584 39.594L45.4553 39.597C45.4057 39.6495 45.3562 39.702 45.3067 39.7514C45.2292 39.8286 45.1487 39.9027 45.062 39.9706C44.6936 40.2669 44.2632 40.4892 43.7616 40.6034C43.7213 40.6127 43.6842 40.6189 43.6439 40.625H43.6408C43.6067 40.6312 43.5758 40.6343 43.5417 40.6374C43.5355 40.6374 43.5324 40.6374 43.5262 40.6405C43.5139 40.6405 43.5015 40.6436 43.4922 40.6436C43.4395 40.6467 43.39 40.6497 43.3404 40.6497C43.3002 40.6528 43.2631 40.6528 43.2228 40.6497C43.198 40.6497 43.1702 40.6466 43.1454 40.6466C43.0989 40.6436 43.0525 40.6405 43.0061 40.6343C42.9317 40.625 42.8574 40.6127 42.7831 40.5973C42.749 40.5911 42.7181 40.5849 42.6871 40.5756C42.6593 40.5695 42.6345 40.5633 42.6066 40.5571C42.5818 40.551 42.5571 40.5448 42.5323 40.5355C42.4611 40.5139 42.393 40.4923 42.3217 40.4676C42.297 40.4583 42.2722 40.4491 42.2474 40.4398C42.1824 40.4151 42.1205 40.3904 42.0555 40.3626C42.0276 40.3503 41.9997 40.3379 41.9688 40.3256C41.9347 40.3102 41.9037 40.2947 41.8697 40.2793C41.8449 40.2669 41.8201 40.2577 41.7985 40.2422C41.7768 40.233 41.7551 40.2206 41.7304 40.2083C41.6963 40.1898 41.6622 40.1712 41.6282 40.1558C41.6158 40.1496 41.6065 40.1435 41.5941 40.1373C41.5879 40.1342 41.5817 40.1311 41.5755 40.128C41.5198 40.1002 41.4641 40.0694 41.4083 40.0354C41.3743 40.0169 41.3402 39.9953 41.3062 39.9768C41.2225 39.9274 41.1389 39.878 41.0553 39.8286C41.0522 39.8286 41.0522 39.8286 41.0522 39.8255C40.1512 39.2853 39.2502 38.9025 38.2407 38.5876C36.0609 37.9115 33.7603 37.6553 31.4845 37.7325C28.5739 37.8343 25.6974 38.4703 22.9385 39.4026C22.0313 39.7082 21.186 40.0601 20.4181 40.5509C20.062 40.9399 19.6749 41.3011 19.26 41.6314C19.0154 41.8259 18.7584 42.0111 18.5014 42.1933C17.4208 42.9465 16.2751 43.6318 15.5041 44.6753C15.4732 44.7154 15.4422 44.7586 15.4143 44.8018C11.8225 54.0075 22.0901 63.92 30.4317 66.4206C31.9644 66.8744 33.5374 67.1707 35.0855 67.569C35.1877 67.9919 35.3147 68.4087 35.454 68.8223C35.4974 69.5169 36.2715 70.3041 35.5562 70.8196C32.9181 71.6686 30.0756 69.8843 27.583 69.1619C18.907 65.7939 11.1816 59.5951 6.37912 51.933C6.42556 51.9145 8.07594 54.4088 13.6525 55.2176C8.7912 51.4421 5.26754 45.6508 5.13439 39.4458C5.20871 38.3159 4.74734 36.8187 6.58349 37.1305C11.259 38.4301 15.984 36.5316 18.4364 32.54C20.7525 30.4655 22.5112 27.7581 22.8425 24.6433C23.8581 21.1302 18.8451 15.4562 21.8176 13.962C24.0594 13.4712 24.8521 16.5459 26.6325 17.3763C30.1809 19.9016 35.3766 19.4385 38.4513 16.3669C40.5444 14.2491 37.3211 14.0824 35.9804 13.1625C39.6155 12.1931 43.8142 11.6406 48.2048 11.6436C52.5924 11.6406 56.7942 12.19 60.4262 13.1625C59.0824 14.0824 55.8622 14.2491 57.9553 16.3669C61.03 19.4354 66.2257 19.8985 69.7741 17.3763C71.5546 16.5459 72.3472 13.4712 74.589 13.962C77.5615 15.4562 72.5485 21.1302 73.5641 24.6433C73.8954 27.7581 75.651 30.4655 77.9702 32.54C80.4225 36.5316 85.1476 38.4301 89.8231 37.1305C91.6624 36.8187 91.201 38.319 91.2753 39.4458Z" fill="#2B3142"/>
<path d="M96.0313 35.7444C95.4461 34.4571 94.1673 33.3766 92.7399 33.4167C91.4642 33.4538 90.3928 34.3182 89.2348 34.8491C85.3272 36.8063 79.4781 33.9848 79.7816 29.3418C79.9643 27.0265 80.9458 24.8625 81.7385 22.6799C83.9029 16.5397 84.937 9.83771 84.005 3.36412C82.9182 -1.83759 78.0321 -0.189088 75.4188 2.82698C72.2915 5.77513 68.387 8.14291 65.0088 10.6527C64.5537 10.9274 64.0923 11.196 63.6309 11.4584C59.3703 9.88401 54.0415 8.94246 48.3659 8.9332C48.3132 8.9332 48.2606 8.9332 48.2048 8.9332C48.1522 8.9332 48.0996 8.9332 48.0438 8.9332C42.3713 8.94555 37.0393 9.88401 32.7787 11.4584C32.3174 11.196 31.856 10.9274 31.4009 10.6527C28.0227 8.14291 24.1182 5.77513 20.9909 2.82698C18.3775 -0.189088 13.4915 -1.83759 12.4047 3.36412C11.4726 9.83771 12.5099 16.5428 14.6712 22.6799C15.4639 24.8625 16.4454 27.0265 16.6281 29.3418C16.9315 33.9848 11.0794 36.8094 7.17489 34.8491C6.01685 34.3182 4.9455 33.4538 3.6698 33.4167C2.24547 33.3735 0.963573 34.454 0.378359 35.7444C-0.113963 38.8994 -0.00558181 42.1254 0.638462 45.2495C1.87701 51.2723 5.00434 56.7951 8.99555 61.4288C11.0299 63.7904 13.3088 65.9452 15.7735 67.8622C16.9842 68.8038 18.2413 69.6898 19.5387 70.5109C20.2013 70.9308 20.7401 71.3414 21.4801 71.6254C22.3347 71.9526 23.2079 72.2428 24.0903 72.4898C27.5799 73.4714 31.2522 73.8172 34.8626 73.4992C35.5098 73.4437 36.6059 73.064 37.1942 73.3541C37.7422 73.6258 38.2345 74.3605 38.7361 74.7402C39.7549 75.5089 41.2535 76.2869 42.393 75.2928C42.5942 75.1169 42.8729 75.0675 43.1206 75.1693C43.164 75.1879 43.2073 75.2064 43.2507 75.2249C43.294 75.2434 43.3374 75.2619 43.3807 75.2836C43.7647 75.4564 44.1455 75.6355 44.5295 75.7991C44.5449 75.8053 44.5573 75.8114 44.5728 75.8176C44.9939 75.9967 45.4212 76.1603 45.8609 76.2807C45.864 76.2807 45.864 76.2838 45.8671 76.2838C46.1086 76.3486 46.3563 76.4011 46.6071 76.435C47.1273 76.506 47.6692 76.4968 48.2017 76.4875C48.3411 76.4844 48.4835 76.4844 48.6228 76.4813C49.2669 76.4783 49.914 76.4381 50.5364 76.2838C50.5395 76.2838 50.5395 76.2838 50.5426 76.2807C50.6138 76.2621 50.6819 76.2436 50.7531 76.2251C51.1247 76.1171 51.4808 75.972 51.8338 75.8176C51.8462 75.8114 51.8616 75.8053 51.8771 75.7991C52.3044 75.6108 52.7224 75.407 53.1559 75.2249C53.1993 75.2064 53.2426 75.1879 53.286 75.1693C53.5337 75.0675 53.8124 75.1169 54.0136 75.2928C55.1531 76.2869 56.6548 75.5089 57.6704 74.7402C58.1721 74.3636 58.6644 73.6258 59.2124 73.3541C59.7976 73.064 60.8969 73.4406 61.544 73.4992C65.1575 73.8172 68.8266 73.4714 72.3163 72.4898C73.1987 72.2428 74.0719 71.9526 74.9265 71.6254C75.6665 71.3414 76.2053 70.9308 76.8679 70.5109C78.1653 69.6898 79.4224 68.8038 80.6331 67.8622C83.0947 65.9452 85.3736 63.7935 87.411 61.4288C91.4053 56.7951 94.5296 51.2723 95.7681 45.2495C96.4122 42.1284 96.5236 38.8994 96.0313 35.7444ZM55.7197 73.8203C55.6516 73.8326 55.5835 73.8419 55.5185 73.8481C55.4844 73.8511 55.4503 73.8542 55.4163 73.8542C55.3884 73.8573 55.3606 73.8573 55.3296 73.8573C54.4471 73.8573 53.6699 73.3325 52.9887 72.7954C52.8866 72.7151 52.7875 72.6318 52.6853 72.5515C52.6574 72.5299 52.6296 72.5052 52.6017 72.4836C52.5521 72.4434 52.5057 72.4033 52.4562 72.3663C52.2301 72.181 52.001 71.9989 51.7626 71.8291C51.5923 71.7087 51.4158 71.5822 51.2331 71.4649C51.2331 71.4649 51.23 71.4648 51.23 71.4618C50.9575 71.2858 50.6727 71.1253 50.3785 71.0141C49.8304 70.8135 49.239 70.7486 48.66 70.7023C48.5083 70.69 48.3566 70.6807 48.2048 70.6715C47.728 70.6468 47.2512 70.6468 46.7805 70.7239C46.1674 70.8258 45.6596 71.0728 45.1828 71.4587C45.1828 71.4587 45.1797 71.4587 45.1797 71.4618C45.1797 71.4648 45.1766 71.4618 45.1766 71.4649C45.1735 71.4679 45.1704 71.471 45.1673 71.4741C44.7834 71.789 44.3468 72.0514 43.9566 72.3663C43.9071 72.4064 43.8606 72.4434 43.8111 72.4836C43.7894 72.499 43.7708 72.5175 43.7523 72.533C43.0432 73.1164 42.2722 73.7524 41.3309 73.8481C41.2473 73.8573 41.1668 73.8604 41.0832 73.8573C41.0553 73.8573 41.0275 73.8573 40.9965 73.8542C40.9625 73.8512 40.9284 73.8511 40.8943 73.8481C40.8262 73.8419 40.7612 73.8326 40.6931 73.8203C35.9556 71.7458 35.5995 65.0715 36.9124 60.6817C38.1757 56.6747 40.628 53.0443 43.6346 50.1239C44.8112 48.9447 46.6474 48.4971 48.2048 48.247C49.7623 48.4971 51.5985 48.9447 52.7751 50.1239C55.7817 53.0443 58.234 56.6778 59.4973 60.6817C60.8164 65.0715 60.4572 71.7458 55.7197 73.8203ZM35.3178 51.8712C35.2435 51.8805 35.166 51.8836 35.0855 51.8805C34.4508 51.8681 33.6457 51.5409 33.1565 51.3711C32.2648 51.0624 31.4133 50.6364 30.6361 50.1054C30.2521 49.843 29.8775 49.5467 29.6143 49.1608C29.3511 48.7749 29.2148 48.2871 29.3325 47.8364C29.4656 47.3332 29.9053 46.9566 30.3915 46.7683C30.8776 46.5831 31.4102 46.5615 31.9334 46.5707C33.7603 46.5985 35.581 46.9597 37.2809 47.6296C38.1417 47.9692 39.0675 48.5032 39.2533 49.4047C39.439 50.3184 38.7362 51.2229 37.8785 51.5903C37.3087 51.8342 35.9463 52.1522 35.3178 51.8712ZM58.5405 51.5903C57.6828 51.2229 56.9769 50.3184 57.1657 49.4047C57.3515 48.5002 58.2773 47.9661 59.1381 47.6296C60.838 46.9597 62.6587 46.5985 64.4855 46.5707C65.0057 46.5615 65.5383 46.5831 66.0275 46.7683C66.5137 46.9535 66.9502 47.3332 67.0865 47.8364C67.2072 48.2871 67.0679 48.7749 66.8047 49.1608C66.5415 49.5467 66.17 49.843 65.7829 50.1054C65.0057 50.6364 64.1542 51.0655 63.2625 51.3711C62.7733 51.5409 61.9682 51.8681 61.3334 51.8805C61.2529 51.8836 61.1755 51.8774 61.1012 51.8712C60.4727 52.1522 59.1072 51.8342 58.5405 51.5903ZM91.2753 39.4458C91.1422 45.6508 87.6185 51.4421 82.7572 55.2176C88.3306 54.4088 89.9841 51.9175 90.0306 51.933C85.2281 59.5951 77.4996 65.7939 68.8266 69.1619C66.3341 69.8812 63.4947 71.6655 60.8535 70.8196C60.1382 70.3041 60.9123 69.5169 60.9557 68.8223C61.095 68.4087 61.222 67.995 61.3241 67.569C62.8723 67.1707 64.4453 66.8775 65.978 66.4206C74.3196 63.92 84.5872 54.0075 80.9954 44.8018C80.9675 44.7586 80.9365 44.7154 80.9056 44.6753C80.8808 44.6413 80.856 44.6074 80.8313 44.5765C80.0603 43.5886 78.9549 42.9218 77.9083 42.1933C77.6482 42.0111 77.3943 41.8259 77.1497 41.6314C76.7348 41.3011 76.3477 40.9399 75.9916 40.5509C75.2237 40.0601 74.3784 39.7082 73.4712 39.4026C70.7123 38.4703 67.8358 37.8343 64.9252 37.7325C62.6463 37.6553 60.3488 37.9115 58.169 38.5876C57.1595 38.9025 56.2585 39.2853 55.3574 39.8255C55.3574 39.8255 55.3544 39.8255 55.3544 39.8286C55.2708 39.878 55.1872 39.9304 55.1036 39.9768C55.0695 39.9953 55.0354 40.0169 55.0014 40.0354C54.9859 40.0447 54.9704 40.0539 54.9518 40.0632C54.9147 40.0848 54.8806 40.1033 54.8435 40.1218C54.8249 40.1311 54.8032 40.1435 54.7846 40.1527C54.7815 40.1558 54.7753 40.1589 54.7722 40.1589C54.732 40.1805 54.6917 40.2021 54.6484 40.2237C54.4007 40.3503 54.1437 40.4583 53.8836 40.5324C53.8557 40.5417 53.8278 40.5479 53.8 40.5571C53.7876 40.5602 53.7752 40.5633 53.7628 40.5664C53.7504 40.5695 53.735 40.5726 53.7226 40.5756C53.6916 40.5849 53.6575 40.5911 53.6266 40.5973C53.5523 40.6127 53.478 40.625 53.4036 40.6343C53.3572 40.6405 53.3108 40.6436 53.2643 40.6466C53.2395 40.6497 53.2117 40.6497 53.1869 40.6497C53.1467 40.6528 53.1095 40.6528 53.0692 40.6497C53.0197 40.6497 52.9671 40.6467 52.9175 40.6436C52.9051 40.6436 52.8927 40.6405 52.8835 40.6405C52.8773 40.6405 52.8742 40.6405 52.868 40.6374C52.8339 40.6343 52.8029 40.6312 52.7689 40.625H52.7658C52.7286 40.6189 52.6884 40.6127 52.6481 40.6034C52.1465 40.4892 51.7161 40.2669 51.3477 39.9706C51.2641 39.9027 51.1804 39.8286 51.103 39.7514C51.0535 39.702 51.0071 39.6557 50.9606 39.6032C50.9389 39.5785 50.9173 39.5538 50.8925 39.5291C50.8863 39.523 50.8801 39.5168 50.8739 39.5075C50.8553 39.489 50.8399 39.4674 50.8244 39.4489C50.7965 39.4118 50.7655 39.3779 50.7377 39.3408C50.7067 39.3007 50.6788 39.2606 50.651 39.2204C50.6417 39.2081 50.6355 39.1988 50.6262 39.1865C50.6076 39.1587 50.5891 39.1309 50.5705 39.1031C50.5643 39.0938 50.555 39.0815 50.5488 39.0692C50.5426 39.0599 50.5395 39.0537 50.5333 39.0445C50.5209 39.0259 50.5086 39.0074 50.4993 38.9889C50.4962 38.9827 50.49 38.9765 50.4869 38.9704C50.4745 38.9488 50.459 38.9241 50.4466 38.9025C50.4218 38.8623 50.4002 38.8222 50.3785 38.7821C50.3104 38.6586 50.2485 38.532 50.1896 38.4023C50.171 38.3591 50.1525 38.3159 50.1339 38.2696C50.1339 38.2665 50.1308 38.2665 50.1308 38.2634C50.0967 38.1863 50.0689 38.1091 50.0379 38.0288C50.0286 38.001 50.0193 37.9732 50.0069 37.9455C49.8428 37.4947 49.7159 37.0317 49.6044 36.5655C49.6013 36.5594 49.6013 36.5532 49.6013 36.547C49.6013 36.5439 49.5982 36.5408 49.5982 36.5378C49.4496 35.8895 49.6168 35.2227 48.9604 34.7812C48.8396 34.6979 48.7034 34.6392 48.5609 34.6053C48.5609 34.6053 48.5609 34.6053 48.5578 34.6053C48.5362 34.5991 48.5145 34.596 48.4897 34.5898C48.4897 34.5898 48.4897 34.5898 48.4866 34.5898C48.4619 34.5836 48.434 34.5806 48.4092 34.5775C48.3597 34.5713 48.3101 34.5651 48.2637 34.5651C48.2265 34.5651 48.1925 34.5651 48.1584 34.5651C48.1089 34.5682 48.0593 34.5713 48.0098 34.5775C47.985 34.5806 47.9571 34.5867 47.9324 34.5898C47.9107 34.596 47.889 34.5991 47.8643 34.6053C47.8643 34.6053 47.8642 34.6053 47.8612 34.6053C47.8426 34.6114 47.8209 34.6176 47.8023 34.6238C47.6661 34.667 47.536 34.7287 47.4215 34.8121C46.8022 35.2659 46.9849 35.908 46.8208 36.5408C46.8208 36.5439 46.8177 36.547 46.8177 36.5501C46.6969 37.0224 46.5762 37.4917 46.409 37.9485C46.3997 37.9763 46.3873 38.0041 46.378 38.0319C46.347 38.1122 46.3161 38.1924 46.282 38.2727C46.2634 38.3159 46.2448 38.3591 46.2263 38.4054C46.1674 38.5351 46.1055 38.6617 46.0374 38.7851C46.0157 38.8253 45.991 38.8654 45.9693 38.9055C45.9507 38.9364 45.9321 38.9642 45.9166 38.9951C45.9042 39.0136 45.895 39.0321 45.8826 39.0506C45.8702 39.0692 45.8578 39.0877 45.8454 39.1062C45.8268 39.134 45.8083 39.1618 45.7897 39.1896C45.7835 39.2019 45.7742 39.2142 45.7649 39.2235C45.7587 39.2359 45.7494 39.2451 45.7401 39.2575C45.7185 39.2852 45.6968 39.3161 45.6751 39.3439C45.6534 39.3717 45.6318 39.4026 45.607 39.4303C45.6039 39.4334 45.6008 39.4365 45.6008 39.4396C45.5791 39.4674 45.5575 39.4921 45.5327 39.5199C45.511 39.5477 45.4893 39.5723 45.4646 39.597L45.4615 39.6001C45.4119 39.6526 45.3624 39.7051 45.3128 39.7545C45.2354 39.8317 45.1549 39.9027 45.0682 39.9737C44.6998 40.27 44.2694 40.4923 43.7677 40.6065C43.7275 40.6158 43.6903 40.6219 43.6501 40.6281H43.647C43.6129 40.6343 43.582 40.6374 43.5479 40.6405C43.5417 40.6405 43.5386 40.6405 43.5324 40.6436C43.5201 40.6436 43.5077 40.6466 43.4984 40.6466C43.4457 40.6497 43.3962 40.6528 43.3466 40.6528C43.3064 40.6559 43.2692 40.6559 43.229 40.6528C43.2042 40.6528 43.1763 40.6497 43.1516 40.6497C43.1051 40.6466 43.0587 40.6436 43.0122 40.6374C42.9379 40.6281 42.8636 40.6158 42.7893 40.6003C42.7552 40.5942 42.7243 40.588 42.6933 40.5787C42.3806 40.5046 42.0771 40.3812 41.7799 40.2361C41.7303 40.2114 41.6839 40.1867 41.6344 40.162C41.6251 40.1558 41.6127 40.1527 41.6003 40.1435C41.5941 40.1404 41.5879 40.1373 41.5817 40.1342C41.5631 40.1249 41.5477 40.1157 41.5291 40.1064C41.4919 40.0848 41.4548 40.0663 41.4145 40.0447C41.3805 40.0261 41.3464 40.0045 41.3123 39.986C41.2287 39.9366 41.1451 39.8872 41.0615 39.8378C41.0584 39.8378 41.0584 39.8378 41.0584 39.8348C40.1574 39.2945 39.2564 38.9117 38.2469 38.5968C36.0671 37.9208 33.7665 37.6645 31.4907 37.7417C28.5801 37.8436 25.7035 38.4795 22.9447 39.4118C22.0374 39.7174 21.1922 40.0694 20.4243 40.5602C19.9288 40.8751 19.4675 41.2455 19.0402 41.6993C18.873 41.8784 18.6934 42.0451 18.5045 42.1994C17.5106 43.0299 16.3061 43.6102 15.5072 44.6814C15.4763 44.7216 15.4453 44.7648 15.4174 44.808C11.8256 54.0137 22.0932 63.9262 30.4348 66.4268C31.9675 66.8806 33.5405 67.1769 35.0886 67.5752C35.1908 67.9981 35.3178 68.4148 35.4571 68.8285C35.5005 69.5231 36.2746 70.3103 35.5593 70.8258C32.9212 71.6748 30.0787 69.8904 27.5861 69.1681C18.9101 65.8001 11.1847 59.6012 6.38222 51.9391C6.42866 51.9206 8.07902 54.415 13.6556 55.2238C8.79428 51.4483 5.27064 45.657 5.13749 39.452C5.21181 38.3221 4.75044 36.8249 6.58659 37.1366C11.2621 38.4363 15.9871 36.5378 18.4395 32.5462C20.7556 30.4717 22.5143 27.7643 22.8456 24.6495C23.8612 21.1364 18.8482 15.4623 21.8207 13.9682C24.0625 13.4774 24.8552 16.5521 26.6356 17.3825C30.184 19.9077 35.3797 19.4447 38.4544 16.373C40.5475 14.2553 37.3242 14.0886 35.9835 13.1687C39.6186 12.1993 43.8173 11.6467 48.2079 11.6498C52.5955 11.6467 56.7973 12.1962 60.4293 13.1687C59.0855 14.0886 55.8653 14.2553 57.9584 16.373C61.0331 19.4416 66.2288 19.9046 69.7772 17.3825C71.5577 16.5521 72.3503 13.4774 74.5921 13.9682C77.5646 15.4623 72.5516 21.1364 73.5672 24.6495C73.8985 27.7643 75.6541 30.4717 77.9733 32.5462C80.4256 36.5378 85.1507 38.4363 89.8262 37.1366C91.6624 36.8187 91.201 38.319 91.2753 39.4458Z" fill="#2B3142"/>
<path d="M96.0314 35.7443C94.3036 32.435 91.8915 33.2469 89.2348 34.8522C85.3272 36.8094 79.4782 33.9878 79.7816 29.3448C79.9643 27.0295 80.9459 24.8655 81.7386 22.6829C84.4943 16.6508 87.9839 -8.24949 75.4189 2.82691C71.8116 6.05599 67.6439 8.88992 63.6341 11.4614C55.1655 8.1305 41.2536 8.1305 32.7881 11.4614C28.7752 8.88683 24.6106 6.05907 21.0002 2.83C8.43517 -8.24641 11.9279 16.6508 14.6836 22.6829C15.4763 24.8655 16.4578 27.0295 16.6374 29.3448C16.9409 33.9878 11.0888 36.8124 7.18424 34.8522C6.02619 34.3212 4.95485 33.4568 3.67915 33.4198C-1.59397 33.7748 0.220512 41.7394 0.64781 45.2525C3.11252 56.5573 11.5408 66.0501 21.4895 71.6253C25.7315 73.2522 30.3482 73.8974 34.875 73.4992C35.5222 73.4436 36.6183 73.0639 37.2066 73.3541C37.7547 73.6257 38.247 74.3605 38.7486 74.7402C39.7673 75.5088 41.2659 76.2868 42.4054 75.2928C43.1671 74.5735 45.1147 76.7807 48.2111 76.4844C51.0969 76.8486 53.3015 74.5673 54.0168 75.2928C55.1562 76.2868 56.658 75.5088 57.6736 74.7402C58.1752 74.3635 58.6675 73.6257 59.2156 73.3541C59.8008 73.0639 60.9 73.4405 61.5471 73.4992C66.074 73.8974 70.6907 73.2522 74.9327 71.6253C87.4513 64.63 98.2453 50.6981 96.0314 35.7443ZM55.7198 73.8202C52.8309 74.1258 51.6078 70.125 48.208 70.6683C46.4802 70.6097 44.9723 71.3969 43.7306 72.5484C42.876 73.2491 41.8573 74.0332 40.6962 73.8202C31.8932 68.5599 37.6122 55.5293 43.6378 50.1239C46.1458 47.7808 50.2702 47.7777 52.7782 50.1239C58.8069 55.5201 64.5258 68.566 55.7198 73.8202ZM35.3178 51.8712C33.4817 51.7909 30.76 50.5684 29.6143 49.1607C28.5058 47.4937 30.3853 46.3793 31.9335 46.5707C34.0266 46.688 38.5164 47.1325 39.2533 49.4046C39.5629 51.3309 36.8815 52.3126 35.3178 51.8712ZM58.5406 51.5902C56.2957 50.4912 56.9614 48.3087 59.1382 47.6295C60.9619 46.8176 68.6192 45.0796 66.8048 49.1607C66.5416 49.5466 66.17 49.843 65.783 50.1054C64.371 50.9852 62.829 51.794 61.1013 51.8712C60.4727 52.1521 59.1072 51.8341 58.5406 51.5902ZM91.2753 39.4457C91.1422 45.6507 87.6185 51.4421 82.7572 55.2175C88.3307 54.4087 89.9842 51.9175 90.0306 51.9329C85.2281 59.595 77.4996 65.7938 68.8267 69.1618C66.3341 69.8811 63.4947 71.6654 60.8535 70.8196C60.1383 70.304 60.9124 69.5168 60.9557 68.8223C61.0951 68.4086 61.222 67.9949 61.3242 67.5689C71.4462 66.2878 84.903 55.9708 80.9985 44.8018C80.2213 43.6657 78.9456 43.0545 77.9084 42.1932C73.3041 37.3712 60.9867 36.3093 55.3544 39.8285C53.9301 40.8349 52.1621 41.0078 50.9545 39.5939C50.1866 38.748 49.8738 37.6213 49.6014 36.5377C49.4837 35.7628 49.4961 34.7595 48.4929 34.5867C47.1212 34.3768 46.9075 35.4788 46.827 36.5377C46.7124 37.0131 46.5855 37.4854 46.4183 37.9454C45.7959 39.9921 43.6563 41.4307 41.6499 40.1557C36.0609 36.7013 28.9486 37.365 22.9602 39.4056C22.053 39.7112 21.2077 40.0631 20.4398 40.554C20.0837 40.9429 19.6967 41.3041 19.2817 41.6344C18.0215 42.6347 16.4795 43.3817 15.5227 44.6783C11.3179 55.8226 24.9852 66.3094 35.1042 67.572C35.2063 67.9949 35.3333 68.4117 35.4726 68.8253C35.516 69.5199 36.2901 70.3071 35.5748 70.8227C32.9367 71.6716 30.0943 69.8873 27.6017 69.1649C18.9257 65.7969 11.2002 59.5981 6.39775 51.936C6.44419 51.9175 8.09457 54.4118 13.6711 55.2206C8.80983 51.4452 5.28616 45.6538 5.15302 39.4488C5.22733 38.3189 4.76597 36.8217 6.60212 37.1335C11.2776 38.4332 16.0027 36.5346 18.455 32.543C20.7711 30.4685 22.5298 27.7612 22.8611 24.6463C23.8767 21.1332 18.8637 15.4592 21.8362 13.9651C24.078 13.4742 24.8707 16.5489 26.6511 17.3793C30.1995 19.9046 35.3952 19.4415 38.4699 16.3699C40.5631 14.2522 37.3397 14.0854 35.999 13.1655C43.1764 11.1589 53.2675 11.1589 60.4448 13.1655C59.101 14.0854 55.8808 14.2522 57.9739 16.3699C61.0486 19.4384 66.2443 19.9015 69.7928 17.3793C71.5732 16.5489 72.3658 13.4742 74.6076 13.9651C77.5801 15.4592 72.5671 21.1332 73.5827 24.6463C73.914 27.7612 75.6697 30.4685 77.9889 32.543C80.4412 36.5346 85.1662 38.4332 89.8417 37.1335C91.6624 36.8186 91.201 38.3189 91.2753 39.4457Z" fill="#2B3142"/>
</svg>
